<!DOCTYPE svg PUBLIC "-//W3C//DTD SVG 1.1//EN" "http://www.w3.org/Graphics/SVG/1.1/DTD/svg11.dtd">
<!-- Uploaded to: SVG Repo, www.svgrepo.com, Transformed by: SVG Repo Mixer Tools -->
<svg fill="#e56c6c" version="1.1" id="Layer_1" xmlns:x="&amp;ns_extend;" xmlns:i="&amp;ns_ai;" xmlns:graph="&amp;ns_graphs;" xmlns="http://www.w3.org/2000/svg" xmlns:xlink="http://www.w3.org/1999/xlink" width="800px" height="800px" viewBox="0 0 24 24" enable-background="new 0 0 24 24" xml:space="preserve">
<g id="SVGRepo_bgCarrier" stroke-width="0"/>
<g id="SVGRepo_tracerCarrier" stroke-linecap="round" stroke-linejoin="round"/>
<g id="SVGRepo_iconCarrier"> <metadata> <sfw> <slices> </slices> <slicesourcebounds width="505" height="984" bottomleftorigin="true" x="0" y="-984"> </slicesourcebounds> </sfw> </metadata> <g> <g> <g> <path d="M16,24H8c-2.2,0-4-1.8-4-4v-7c0-2.2,1.8-4,4-4h8c2.2,0,4,1.8,4,4v7C20,22.2,18.2,24,16,24z M8,11c-1.1,0-2,0.9-2,2v7 c0,1.1,0.9,2,2,2h8c1.1,0,2-0.9,2-2v-7c0-1.1-0.9-2-2-2H8z"/> </g> </g> <g> <g> <path d="M17,11H7c-0.6,0-1-0.4-1-1V6c0-3.3,2.7-6,6-6c3.4,0,6,2.7,6,6v4C18,10.6,17.6,11,17,11z M8,9h8V6c0-2.2-1.8-4-4-4 C9.8,2,8,3.8,8,6V9z"/> </g> </g> <g> <g> <circle cx="12" cy="15" r="2"/> </g> </g> <g> <g> <path d="M12,20c-0.6,0-1-0.4-1-1v-3c0-0.6,0.4-1,1-1s1,0.4,1,1v3C13,19.6,12.6,20,12,20z"/> </g> </g> </g> </g>
</svg>